inDegrees=no
num_controls=7
num_derivatives=13
num_iterations=50
num_multipliers=7
num_parameters=0
num_slacks=7
num_states=26
objective=0.316465
objective_accelerations=0.033949
objective_balance=0.003273
objective_effort=0.027352
objective_height=0.246600
objective_ligament=0.005291
solver_duration=736.175391
status=Solve_Succeeded
success=true
DataType=double
version=3
OpenSimVersion=4.5
endheader
time	/jointset/ground_pelvis/pelvis_tilt/value	/jointset/ground_pelvis/pelvis_tx/value	/jointset/ground_pelvis/pelvis_ty/value	/jointset/hip_l/hip_flexion_l/value	/jointset/hip_l/hip_adduction_l/value	/jointset/hip_l/hip_rotation_l/value	/jointset/back/lumbar_extension/value	/jointset/patellofemoral_l/patellar_flexion_l/value	/jointset/knee_l/knee_flexion_l/value	/jointset/knee_l/knee_adduction_l/value	/jointset/knee_l/knee_rotation_l/value	/jointset/ankle_l/ankle_angle_l/value	/jointset/subtalar_l/subtalar_angle_l/value	/jointset/ground_pelvis/pelvis_tilt/speed	/jointset/ground_pelvis/pelvis_tx/speed	/jointset/ground_pelvis/pelvis_ty/speed	/jointset/hip_l/hip_flexion_l/speed	/jointset/hip_l/hip_adduction_l/speed	/jointset/hip_l/hip_rotation_l/speed	/jointset/back/lumbar_extension/speed	/jointset/patellofemoral_l/patellar_flexion_l/speed	/jointset/knee_l/knee_flexion_l/speed	/jointset/knee_l/knee_adduction_l/speed	/jointset/knee_l/knee_rotation_l/speed	/jointset/ankle_l/ankle_angle_l/speed	/jointset/subtalar_l/subtalar_angle_l/speed	/forceset/tau_hip_flexion_l	/forceset/tau_hip_adduction_l	/forceset/tau_hip_rotation_l	/forceset/tau_knee_flexion_l	/forceset/tau_ankle_angle_l	/forceset/tau_subtalar_angle_l	/forceset/tau_lumbar_extension	lambda_cid13_p0	lambda_cid13_p1	lambda_cid13_p2	lambda_cid13_p3	lambda_cid13_p4	lambda_cid13_p5	lambda_cid14_p0	/jointset/ground_pelvis/pelvis_tilt/accel	/jointset/ground_pelvis/pelvis_tx/accel	/jointset/ground_pelvis/pelvis_ty/accel	/jointset/hip_l/hip_flexion_l/accel	/jointset/hip_l/hip_adduction_l/accel	/jointset/hip_l/hip_rotation_l/accel	/jointset/back/lumbar_extension/accel	/jointset/patellofemoral_l/patellar_flexion_l/accel	/jointset/knee_l/knee_flexion_l/accel	/jointset/knee_l/knee_adduction_l/accel	/jointset/knee_l/knee_rotation_l/accel	/jointset/ankle_l/ankle_angle_l/accel	/jointset/subtalar_l/subtalar_angle_l/accel	gamma_cid13_p0	gamma_cid13_p1	gamma_cid13_p2	gamma_cid13_p3	gamma_cid13_p4	gamma_cid13_p5	gamma_cid14_p0
1.5	-0.354273998909997	-0.02762310189085341	0.5350145456997196	1.805765740778241	-0.331310246044542	0.1765400372460068	-0.433497394589482	1.688794296851626	1.688794296851615	0.1044526650523058	-0.1743300888742648	0.427522098813311	0.2687865204136291	-0.0309241475296135	0.07918103701531243	1.079502138456874	-2.932294163762509	-0.1947330362112017	-1.024112273131295	0.1076168610290858	-2.936919316048029	-2.936919316048036	-0.3190284894625409	-0.003993930086702702	-0.2275547999112971	-0.446947356256663	-0.2429526839396504	0.00999120985011305	-0.02048097450219723	-0.3803448758279834	0.04128543725264761	0.01513050575951709	0.2332286057024404	-21.65592968713317	6.419383046864017	-11.81163789190254	-11.09390628746277	-588.5225874562498	-92.06762924290275	-0.02382636613153936	4.054178453509662	1.730034113771119	2.790704920187607	-10.90254738433307	1.126523056394461	-0.7689400393735677	2.704713912357795	-9.836465185771486	-9.836465185771646	-1.565196819452612	0.005907979219002416	-3.612428811944753	-0.1499066102458927	-4.217672802166282e-07	3.94217063330503e-07	5.836587627369361e-07	9.156301766417147e-07	-2.52228539323164e-07	2.102764086467343e-06	-1.971930484870214e-07
1.51	-0.3543811167185653	-0.02674340464371754	0.5459452340282368	1.775905201472133	-0.3332003675495883	0.1662604681086146	-0.432280069003216	1.658936023844103	1.658936023844101	0.101186429415746	-0.1743692478733764	0.4250623387685669	0.264309825127796	0.009520272371685972	0.09689706195432386	1.106277115934752	-3.039277802950718	-0.1832237768847992	-1.031711169502936	0.1363494559566275	-3.034529843920827	-3.034529843920808	-0.3341307479287903	-0.003771282179859947	-0.2646974473138752	-0.4483548915672375	-0.2409913614013498	0.01135992657985831	-0.01989298424881021	-0.3699828438850048	0.0387451994369397	0.01611839102606217	0.2317015111986589	-21.67936033746212	5.535003399336063	-11.14584793022122	-12.07965500761567	-581.2685602790317	-89.94908487863435	-0.02405620070048143	4.042543798109087	1.813401316503865	2.567096570179674	-10.51588513908561	1.173171265347311	-0.7418889297986859	3.032712242755583	-9.692495008999	-9.692495008995042	-1.469624512395971	0.04070079415609881	-3.810254394825706	-0.1309038274408807	-4.225086306216457e-07	7.407417369045106e-07	8.191216939246084e-07	1.028078023338169e-06	-2.042100422251454e-07	2.355946267258635e-06	-1.836964429157188e-07
1.52	-0.3540831963201878	-0.02568234422068405	0.5571329126132519	1.744990903183539	-0.3349733876824531	0.1559076051087539	-0.4307603814757119	1.628107815873659	1.628107815873665	0.09777179436411226	-0.1744041288738702	0.4222221379117156	0.2598201091216616	0.05008349385974865	0.1154536721948348	1.130900189756335	-3.143045960259755	-0.1713127617750269	-1.038771045624149	0.1680892492763025	-3.130906308632227	-3.130906308632183	-0.3487083724824367	-0.003138330363451501	-0.3036429623329084	-0.4495515003169187	-0.2390300388630401	0.01272864330958384	-0.01930499399536399	-0.3596208119420257	0.03620496162122601	0.01710627629257102	0.2301744166948821	-21.73265976756194	4.651570127219625	-10.47531722893537	-13.02909712763329	-574.3263101573432	-88.01419020473918	-0.02427169043581006	4.077938770862259	1.898151174071031	2.360324188928596	-10.25945100849861	1.206874213068424	-0.6611359892880666	3.30615359078444	-9.589652553491808	-9.589652553492291	-1.460270036932009	0.08796876113220287	-3.973002335235786	-0.1077212980672017	-4.1132111254473e-07	1.036930829820149e-06	8.595622924714507e-07	1.113950232890614e-06	-1.50820962749199e-07	2.314459162259693e-06	-1.2983083525221e-07
1.53	-0.3533791724643935	-0.0244316926382607	0.5685555296457094	1.713055186606773	-0.3366257898651842	0.1454867456216409	-0.4289092355372326	1.596322859530068	1.596322859530062	0.09421378057207293	-0.1744310043435909	0.4189843102001113	0.2553193440867123	0.09069035893439745	0.1347951463587641	1.153207785445053	-3.243503353625519	-0.1591092557109745	-1.045328690100319	0.2025856374814627	-3.225786300504998	-3.225786300504975	-0.3627732180130137	-0.002120383379566516	-0.344133495531791	-0.4505131929906185	-0.2355087101017214	0.01397136597701666	-0.0187935181831806	-0.3479659006608021	0.03383734319688845	0.01811511696119128	0.2272657083984215	-21.61277678278843	3.700959011077356	-9.762373759846049	-13.95419546944538	-565.2717597721627	-85.93183684333617	-0.02448367234441554	4.047459656172387	1.970161336192379	2.103650547591272	-9.849759386362617	1.235796906041676	-0.6421856377232543	3.588236294628706	-9.392377312374178	-9.392377312377061	-1.361325444032011	0.1263688513690638	-4.11871421767326	-0.0774320478149656	-3.874591717057604e-07	1.279638368286269e-06	6.927916625874132e-07	1.171585827977551e-06	-9.172563949670458e-08	1.959885941108631e-06	-3.307316286573258e-08
1.54	-0.3522700001017725	-0.02298402315447042	0.5801887572928046	1.680132720919199	-0.3381544153666817	0.1350024882975843	-0.4266997547448515	1.563598062306109	1.563598062306091	0.09051877159818517	-0.1744441681066273	0.4153352500754253	0.2508115543658671	0.1311131952252973	0.1548572524682184	1.173022312683724	-3.340395782421175	-0.1465574255282042	-1.051450613014162	0.2397562200565027	-3.318874484705946	-3.318874484705942	-0.3761074088600509	-0.0003959890215862703	-0.3858894449490239	-0.4509564374960623	-0.2319873813404059	0.01521408864446254	-0.01828204237088714	-0.3363109893795695	0.0314697247725557	0.0191239576298342	0.2243570001019578	-21.52332943784276	2.753861783273037	-9.047918291942533	-14.84063024710316	-556.5075847491473	-84.03808799724204	-0.02470348241441022	4.041133014112452	2.042277563176054	1.86171049891922	-9.546458094477082	1.276539036812015	-0.5739916768226414	3.840992464760377	-9.231291019127214	-9.23129101912737	-1.314139100224043	0.2292582359512879	-4.226085578905814	-0.004031664415982182	-3.423471246688812e-07	1.43807418636645e-06	2.72232975256174e-07	1.193111081034193e-06	-1.920509570367535e-08	1.333980584420348e-06	1.052659759895221e-07
1.55	-0.3507576628591623	-0.02133234113659799	0.5920072093993537	1.646259268423649	-0.3395567775783163	0.1244595174379237	-0.4241063659032887	1.529952046413473	1.529952046413456	0.08669265478290392	-0.1744380671557358	0.4112630600090743	0.2463008424979955	0.1712660353237262	0.1755740658011156	1.19020117163371	-3.433638250322426	-0.1339071321989432	-1.05712298577649	0.2792980054905804	-3.409945900692623	-3.409945900692582	-0.3889929312603583	0.001674410605355097	-0.4286770681262191	-0.451124809001725	-0.2268977223709431	0.01627217326671215	-0.01783997372176186	-0.3235663758198604	0.02936368243720611	0.02010388611550028	0.220034142627545	-21.25033786997119	1.776776607695539	-8.316793214304777	-15.67456511145733	-545.7305341339985	-81.96912471194071	-0.02495408449002566	3.989191770251987	2.100852797706342	1.575956577443219	-9.114615704065296	1.260569680125075	-0.5604531788750294	4.06724016789197	-8.987726916268549	-8.987726916263046	-1.257005657325448	0.2045509642793291	-4.32433415173185	-0.01420538290463622	-2.727512596213684e-07	1.499414326610661e-06	-4.407336913076946e-07	1.173030940012454e-06	6.878363697301265e-08	3.954534193957192e-07	2.915141957761913e-07
1.56	-0.3488464307630591	-0.01947059706952473	0.6039834466922845	1.611473096335863	-0.3408323778168308	0.1138605042300602	-0.4211062654903528	1.495406784355404	1.495406784355388	0.08274143337416962	-0.1744095381809627	0.4067591470180291	0.2417902538172144	0.2108921659239126	0.1968696623083845	1.20457934995993	-3.522939700868324	-0.12120503090401	-1.062659082656303	0.321098534331083	-3.498723717792524	-3.49872371779245	-0.4011283275563217	0.004089615760845157	-0.4722340298876322	-0.4509318000779172	-0.2218080634014926	0.01733025788897945	-0.01739790507255057	-0.3108217622601413	0.02725764010186452	0.02108381460119829	0.2157112851531201	-21.00589294427419	0.8053505423917564	-7.587326258565577	-16.47187516033909	-535.1919379830023	-80.088714540122	-0.02522082987535111	3.935791114463969	2.158034198050413	1.301574374165897	-8.758254623406758	1.286900629946412	-0.5467365003196686	4.292741146045358	-8.772571241772139	-8.772571241773084	-1.164113879355262	0.2982193416609962	-4.379953295749336	0.06824442147811496	-1.818851215142388e-07	1.554040952947131e-06	-1.413401968763922e-06	1.117855076353118e-06	1.838206090988591e-07	-6.549451380135196e-07	5.136676602392122e-07
1.57	-0.3465416580085459	-0.01739323804627029	0.6160890704673342	1.57581344351203	-0.3419803056404624	0.1032091784765932	-0.417678021095632	1.459986332165138	1.459986332165125	0.07867083509811158	-0.1743532520556758	0.4018170619585666	0.2372847380963581	0.2499194443402155	0.2186712074559072	1.216031008559284	-3.608278136107066	-0.1082825374983853	-1.067482227177163	0.3648628535479718	-3.58485150102645	-3.584851501026399	-0.4128183116715337	0.00749441446731094	-0.5161780369917017	-0.4499018750844006	-0.2153895937792896	0.01822985787415245	-0.01699076963788497	-0.2970208350719623	0.02525421194302719	0.0220424665911253	0.2101362150554874	-20.63782688561081	-0.1911133331631814	-6.839438741543947	-17.179318100191	-522.7686318018839	-78.06703210052586	-0.02549962932743604	3.864848407382129	2.201766796866759	0.9898858027860316	-8.314637468921724	1.310050930706958	-0.4308033954218513	4.465153649739201	-8.455785869139461	-8.455785869142289	-1.14492606933133	0.4099551567194809	-4.400788891147972	0.1609488781143816	-6.443114208258861e-08	1.600275686898927e-06	-2.710697259835596e-06	1.018809559396785e-06	3.326678805361534e-07	-1.84518293590352e-06	7.807026805476722e-07
1.58	-0.3438508820294355	-0.01509575314678803	0.6282937956683714	1.539321806436846	-0.3429959830830718	0.09251348128443589	-0.4138027582406967	1.423720021341546	1.423720021341538	0.07448863990257866	-0.1742532489390219	0.3964357039333802	0.2327976380934019	0.288092810843267	0.2408948375539497	1.224399635157309	-3.689336551138362	-0.09475495469930881	-1.071533370396131	0.4105022263740071	-3.667895444457837	-3.667895444457809	-0.4234477114558335	0.01283301403697956	-0.5600886230322588	-0.4472486564978458	-0.2089711241571056	0.01912945785934863	-0.01658363420314092	-0.2832199078837729	0.02325078378420038	0.02300111858109378	0.2045611449578362	-20.29432684155686	-1.179720448357175	-6.096861638402222	-17.85849849313989	-510.5024148154288	-76.22898904968993	-0.02579866262325627	3.765008731813716	2.242451188154408	0.6849679739002298	-7.902250581917494	1.407918508636712	-0.3923362399412889	4.667751867874635	-8.155803281264102	-8.155803281265623	-0.9519970131728436	0.684979514301491	-4.373269083046845	0.3929031400857286	7.904146425074321e-08	1.545884259864587e-06	-4.205876031737176e-06	8.88072340931747e-07	5.120785977060761e-07	-2.985760782729133e-06	1.055542322904609e-06
